<?xml version="1.0" encoding="utf-8"?>
<!-- Generator: Adobe Illustrator 21.0.0, SVG Export Plug-In . SVG Version: 6.00 Build 0)  -->
<svg version="1.1"
	 id="svg2" xmlns:cc="http://creativecommons.org/ns#" xmlns:dc="http://purl.org/dc/elements/1.1/" xmlns:rdf="http://www.w3.org/1999/02/22-rdf-syntax-ns#" xmlns:svg="http://www.w3.org/2000/svg"
	 xmlns="http://www.w3.org/2000/svg" xmlns:xlink="http://www.w3.org/1999/xlink" x="0px" y="0px" viewBox="0 0 163 27.4"
	 style="enable-background:new 0 0 163 27.4;" xml:space="preserve">
<style type="text/css">
	.st0{fill:#348ac7;}
</style>
<g id="g10" transform="matrix(1.3333333,0,0,-1.3333333,0,27.426667)">
	<g id="g12" transform="scale(0.1)">
		<path id="path14" class="st0" d="M589,130.2l0.5,0.7c-1.2,6-4.7,11.3-9.6,15c-2.3,1.7-5,3-7.8,3.8c-3,0.8-6,1.3-9,1.3
			c-5.7,0.2-11.1-1.3-16-4.3c-3.8-2.5-6.2-6.8-6-11.5c0-2.7,0.8-5.2,2.5-7.2c1.8-2.2,4.2-4,6.7-5.2c3-1.7,6.3-3,9.6-4
			c3.5-1.2,7.2-2.3,11.1-3.5c4.2-1.3,8.5-2.8,13.1-4.7c4.3-1.7,8.5-4,12.3-6.7c3.7-2.7,6.8-6.2,9-10c2.5-4.3,3.7-9.1,3.5-14.1
			c0-4.8-1-9.6-3.2-14.1c-2.2-4.3-5.3-8.2-9-11.3c-4-3.3-8.8-5.8-13.8-7.1c-5.8-1.7-11.8-2.3-17.8-2.3c-5.8,0-11.5,0.8-17.1,2.3
			c-5,1.5-9.5,4-13.6,7c-8,6.3-13.5,15.1-15.8,25l17.8,4.8c0.5-3,1.5-6,3-8.7c1.5-2.8,3.5-5.5,6-7.5c5.7-4.8,13-7.3,20.3-7.1
			c7.5,0,13.5,1.7,17.6,5c4,3,6.3,7.6,6.2,12.6c0.2,3.3-1,6.5-3,9c-2.3,2.5-5,4.7-8,6c-3.7,1.8-7.3,3.3-11.3,4.3
			c-4.2,1.2-8.3,2.5-12.6,3.8c-3.5,1.2-7.2,2.5-11.1,4c-3.8,1.5-7.3,3.5-10.5,5.8c-3.2,2.3-6,5.5-7.8,9c-2.2,4-3.2,8.5-3,13.1
			c0,4.5,1,9,3,13c2,4.2,5,7.6,8.5,10.6c3.8,3.2,8.3,5.5,13.1,7c5.3,1.7,11,2.5,16.6,2.5c5.2,0,10.5-0.8,15.5-2.3
			c4.7-1.5,9-3.7,13-6.3c3.8-2.7,7-6,9.6-10c2.5-4,4.5-8.3,5.5-13L589,130.2"/>
		<path id="path16" class="st0" d="M623.6,46.8h18.6v117.5h-18.6V46.8z"/>
		<path id="path18" class="st0" d="M770.5,164.4L721.9,47h-19.5l-48.6,117.3h20.3l31.3-77.7c1-2.5,1.7-4.8,2.5-7.1
			c0.8-2.3,1.5-4.3,2-6c0.5-1.7,1-3,1.3-4l0.7-1.5h0.2l0.5,1.7c0.3,1,0.8,2.3,1.5,4c0.7,1.7,1.3,3.7,2.2,6c0.8,2.3,1.7,4.7,2.7,7.1
			l31.3,77.7H770.5L770.5,164.4"/>
		<path id="path20" class="st0" d="M864,64.3V46.8h-81.7v117.5H863v-17.5h-62v-30.6h49.6V99.7h-49.6V64.1L864,64.3L864,64.3"/>
		<path id="path22" class="st0" d="M996.1,164.4L995.6,47h-18.3v44.6c0,5.3,0,10.6,0.2,15.6c0.2,5,0.3,9.3,0.5,13.3
			c0.2,4,0.2,6.8,0.3,9.3l0.2,3.5h-0.2l-1.2-2c-0.8-1.3-1.8-3-2.8-4.8c-1-1.8-2.2-3.8-3.3-5.8l-2.8-5l-22.8-39.4h-9.6l-22.8,39.4
			c-0.8,1.3-1.8,3-3,5c-1.2,2-2.3,4-3.5,5.8c-1.2,1.8-2.2,3.5-3,4.8l-1.2,2h-0.2l0.2-3.3c0.2-2.3,0-5.3,0-9.3c0-4,0.2-8.1,0.3-13.3
			c0.2-5.2,0.2-10.2,0.2-15.6V47h-18.3v117.4h17.5l26.6-44.9c2.3-4,4.5-7.3,6-10.1c1.5-2.7,2.7-4.7,3.5-6.2c0.8-1.5,1.5-2.5,1.8-3
			l0.5-0.8h0.2l0.5,0.8c0.3,0.5,0.8,1.5,1.7,3c0.8,1.5,2,3.5,3.5,6.2c1.5,2.7,3.5,6,5.8,10.1l26.6,44.9H996.1L996.1,164.4"/>
		<path id="path32" class="st0" d="M386.8,40.7l62.2,62.2L386.8,165l15,15l77.2-77.2l-77.2-77.2L386.8,40.7z M324.6,102.9l21.5,21.5
			l21.5-21.5l-21.5-21.5L324.6,102.9z M243.2,102.9l62.2-62.2l-15-15l-77.2,77.2l77.2,77.2l15-15L243.2,102.9z M401.8,205.8
			l-27.9-27.9l-27.9,27.9l-12.4-12.4l89.6-90.4l-49.3-49.3l-15,15l34.3,34.3L290.4,205.8L187.5,102.9L290.4,0l27.9,27.9L346.1,0
			l12.8,12.8l-89.9,90.1l49.3,49.3l15-15l-34.3-34.3L401.8,0l102.9,102.9L401.8,205.8"/>
	</g>
</g>
</svg>
